<?xml version="1.0" encoding="UTF-8" standalone="no"?>
<!-- Created with Inkscape (http://www.inkscape.org/) -->

<svg
   version="1.1"
   id="svg1"
   width="217.92"
   height="219.2"
   viewBox="0 0 217.92 219.2"
   sodipodi:docname="icon.svg"
   inkscape:version="1.4.2 (ebf0e940, 2025-05-08)"
   xmlns:inkscape="http://www.inkscape.org/namespaces/inkscape"
   xmlns:sodipodi="http://sodipodi.sourceforge.net/DTD/sodipodi-0.dtd"
   xmlns="http://www.w3.org/2000/svg"
   xmlns:svg="http://www.w3.org/2000/svg">
  <defs
     id="defs1" />
  <sodipodi:namedview
     id="namedview1"
     pagecolor="#ffffff"
     bordercolor="#666666"
     borderopacity="1.0"
     inkscape:showpageshadow="2"
     inkscape:pageopacity="0.0"
     inkscape:pagecheckerboard="0"
     inkscape:deskcolor="#d1d1d1"
     inkscape:zoom="0.82353232"
     inkscape:cx="134.78524"
     inkscape:cy="315.71317"
     inkscape:window-width="992"
     inkscape:window-height="755"
     inkscape:window-x="229"
     inkscape:window-y="50"
     inkscape:window-maximized="0"
     inkscape:current-layer="g1" />
  <g
     inkscape:groupmode="layer"
     inkscape:label="Image"
     id="g1">
    <path
       style="fill:#000000"
       d="m 104.17428,212.18844 c 0.396,-0.0763 1.044,-0.0763 1.44,0 0.396,0.0763 0.072,0.13868 -0.72,0.13868 -0.792,0 -1.116,-0.0624 -0.72,-0.13868 z m 2.32,-7.25294 v -7.47877 l -1.68,-0.26364 c -1.37706,-0.2161 -1.50364,-0.28406 -0.702,-0.37688 0.5379,-0.0623 1.3659,0.0342 1.84,0.2145 l 0.862,0.32773 v 7.52792 c 0,4.14035 -0.072,7.52792 -0.16,7.52792 -0.088,0 -0.16,-3.36545 -0.16,-7.47878 z m 7.18338,7.07086 c -0.0861,-0.22435 -0.11727,-3.50035 -0.0693,-7.28 l 0.0872,-6.87208 0.15933,7.28028 c 0.0876,4.00415 0.11881,7.28015 0.0693,7.28 -0.0495,-1.6e-4 -0.16049,-0.18384 -0.24658,-0.4082 z m -13.32338,-0.13068 c 0.231,-0.0924 0.507,-0.0811 0.61333,0.0253 0.10634,0.10634 -0.0827,0.18197 -0.42,0.16807 -0.37278,-0.0153 -0.4486,-0.0912 -0.19333,-0.19333 z m 17.58,0.007 c 0.22,-0.0888 0.58,-0.0888 0.8,0 0.22,0.0888 0.04,0.1614 -0.4,0.1614 -0.44,0 -0.62,-0.0726 -0.4,-0.1614 z m -20.46,-0.327 c 0.231,-0.0924 0.507,-0.0811 0.613334,0.0253 0.106333,0.10634 -0.08267,0.18197 -0.42,0.16807 -0.372782,-0.0153 -0.448608,-0.0912 -0.193334,-0.19333 z m 23.66,0.007 c 0.22,-0.0888 0.58,-0.0888 0.8,0 0.22,0.0888 0.04,0.1614 -0.4,0.1614 -0.44,0 -0.62,-0.0726 -0.4,-0.1614 z m 2.9,-0.32667 c 0.231,-0.0924 0.507,-0.0811 0.61333,0.0253 0.10634,0.10634 -0.0827,0.18197 -0.42,0.16807 -0.37278,-0.0154 -0.44861,-0.0912 -0.19333,-0.19333 z m -23.37885,-14.49268 c -1.187367,-0.12105 -2.262574,-0.32381 -2.38935,-0.45059 -0.33174,-0.33174 4.16806,0.14653 4.5322,0.48171 0.1672,0.15391 0.2392,0.25938 0.16,0.2344 -0.0792,-0.025 -1.11548,-0.14447 -2.30285,-0.26552 z m 13.77885,0.0924 c 0.231,-0.0924 0.507,-0.0811 0.61333,0.0253 0.10634,0.10634 -0.0827,0.18197 -0.42,0.16807 -0.37278,-0.0153 -0.44861,-0.0912 -0.19333,-0.19333 z m 2.32667,-0.21681 c 0.0733,-0.0635 1.50133,-0.19359 3.17333,-0.28914 1.70996,-0.0977 2.68999,-0.0612 2.24,0.0835 -0.77796,0.25015 -5.6799,0.43636 -5.41333,0.20563 z M 96.490746,196.0858 c -1.728007,-0.3042 -1.930975,-0.70353 -0.224452,-0.4416 0.785392,0.12056 1.487986,0.27115 1.56132,0.33466 0.305743,0.26478 -0.207213,0.30581 -1.336868,0.10694 z m 26.670204,-0.11047 c 0.0733,-0.0654 0.85333,-0.21539 1.73333,-0.3332 1.13623,-0.15212 1.46087,-0.11905 1.12,0.1141 -0.43149,0.29512 -3.17452,0.50575 -2.85333,0.2191 z m -30.74667,-0.85777 c -0.343927,-0.23428 -0.117138,-0.26622 0.8,-0.11265 1.587431,0.2658 1.842931,0.45097 0.613334,0.44452 -0.513334,-0.003 -1.149334,-0.15204 -1.413334,-0.33187 z m 34.26667,0.21922 c 0.0733,-0.0647 0.70933,-0.214 1.41333,-0.33187 0.91714,-0.15357 1.14393,-0.12163 0.8,0.11265 -0.43172,0.29408 -2.53448,0.50235 -2.21333,0.21922 z M 89.37428,194.4955 c -0.352,-0.15154 -1.072,-0.37554 -1.6,-0.4978 -0.528,-0.12225 -0.816,-0.27306 -0.64,-0.33512 0.176,-0.0621 1.328,0.15869 2.56,0.49057 1.469406,0.39582 1.909746,0.60589 1.28,0.61063 -0.528,0.004 -1.248,-0.11675 -1.6,-0.26828 z m 40.18667,0.20128 c 0.0733,-0.0647 0.70933,-0.214 1.41333,-0.33187 0.91714,-0.15357 1.14393,-0.12163 0.8,0.11265 -0.43172,0.29408 -2.53448,0.50235 -2.21333,0.21922 z m -21.70667,-0.44031 c 1.364,-0.06 3.596,-0.06 4.96,0 1.364,0.06 0.248,0.10906 -2.48,0.10906 -2.728,0 -3.844,-0.0491 -2.48,-0.10906 z m -57.400817,-0.64214 c -0.398039,-0.50754 -0.38672,-0.51886 0.120818,-0.12082 0.308,0.24155 0.56,0.49355 0.56,0.56 0,0.26337 -0.26278,0.0939 -0.680818,-0.43918 z m 48.116347,-0.10202 c -6.821923,-1.04804 -13.681884,-2.93519 -19.91553,-5.47868 -3.11897,-1.27263 -8.533171,-3.98756 -8.794123,-4.40979 -0.135382,-0.21906 1.089897,-0.32951 3.655238,-0.32951 3.432219,0 3.929648,-0.0708 4.498885,-0.64 0.722332,-0.72233 0.826262,-1.60574 0.256,-2.176 -0.522465,-0.52247 -13.838876,-0.55407 -13.516268,-0.0321 0.564397,0.91322 -3.123368,-1.53409 -7.219731,-4.79122 -5.199888,-4.13456 -9.99968,-9.03427 -13.519279,-13.8007 l -0.827024,-1.12 1.57618,-0.0579 c 1.646717,-0.0605 4.171963,-1.05509 6.230457,-2.45388 l 1.19597,-0.81268 1.311848,0.89724 c 5.673702,3.88055 10.106382,3.83102 16.511847,-0.18452 0.760136,-0.47652 0.886295,-0.44786 2.531748,0.57513 1.596714,0.99269 1.933565,1.07621 4.32,1.0711 2.137962,-0.005 2.838776,-0.14232 4.028252,-0.79174 3.05961,-1.67046 2.926654,-1.65879 5.373904,-0.47158 4.414197,2.1414 7.644359,2.30412 11.266096,0.56751 3.14728,-1.50911 3.27062,-1.51999 5.50912,-0.48613 4.44011,2.05071 8.34177,2.19346 11.78501,0.43117 2.36735,-1.21164 2.66997,-1.22378 4.98506,-0.19993 5.13914,2.27277 8.46879,2.11731 12.43941,-0.5808 1.32636,-0.90129 1.98895,-0.82727 4.81986,0.5384 2.9193,1.40832 4.13478,1.64113 6.26789,1.20054 1.99473,-0.412 3.78961,-1.25791 4.96069,-2.33792 0.68679,-0.63338 0.68757,-0.63329 2.08,0.2467 0.76613,0.48417 2.32896,1.31229 3.47296,1.84027 1.82983,0.84449 2.44656,0.9629 5.1277,0.9845 3.34996,0.027 4.53141,-0.33238 7.53612,-2.29228 l 1.62382,-1.05918 2.21618,1.27462 c 1.2189,0.70104 2.93618,1.44269 3.81618,1.64812 3.0853,0.72023 3.07035,0.4751 0.23346,3.82672 -1.40896,1.6646 -3.13801,3.58028 -3.84234,4.25706 l -1.28061,1.23052 -2.1226,-0.33046 c -1.22861,-0.19128 -2.88471,-0.74324 -3.93208,-1.31051 -0.99522,-0.53904 -2.27297,-0.98006 -2.83944,-0.98006 -0.56648,0 -2.12639,0.52069 -3.46646,1.15708 -2.40463,1.14196 -2.47726,1.15484 -5.55321,0.98472 -1.7142,-0.0948 -4.77272,-0.33639 -6.79672,-0.53686 -2.024,-0.20047 -4.14909,-0.27686 -4.72242,-0.16976 -1.3708,0.25607 -2.12877,1.3781 -1.6974,2.51269 0.377,0.99158 0.79051,1.09892 4.97982,1.29267 1.76,0.0814 4.352,0.31625 5.76,0.52191 3.81704,0.55752 5.94722,0.29022 9.0707,-1.13821 2.3007,-1.05217 2.78837,-1.1723 3.52,-0.86712 0.46712,0.19483 1.67484,0.68919 2.68383,1.09856 1.009,0.40938 1.837,0.81953 1.84,0.91145 0.0118,0.35993 -7.77397,6.56505 -9.14551,7.28883 -0.43481,0.22946 -0.78054,0.24452 -0.98227,0.0428 -0.18846,-0.18845 -3.13031,-0.27725 -7.45477,-0.22502 l -7.14347,0.0863 -0.64306,0.86168 c -0.60936,0.81653 -0.61496,0.90456 -0.10688,1.68 0.53562,0.81746 0.54118,0.81832 5.32881,0.81832 2.63594,0 4.79262,0.12795 4.79262,0.28434 0,0.32516 -3.84691,2.35925 -7.29651,3.85809 -3.52235,1.53044 -8.10946,3.08051 -12.32512,4.16486 l -3.78162,0.97271 h -10.9626 -10.96259 l -0.75156,0.8 c -0.87274,0.92899 -0.85786,0.92864 -6.00447,0.13798 z m 28.84131,-10.56121 c 0.96382,-0.75813 1.0828,-1.74157 0.31356,-2.59158 -0.48758,-0.53876 -1.19961,-0.58519 -8.97454,-0.58519 h -8.44495 l -0.78546,0.78545 c -0.91737,0.91738 -0.9937,1.65404 -0.25585,2.46935 0.4874,0.53857 1.19781,0.5852 8.91684,0.5852 8.00061,0 8.42612,-0.0306 9.2304,-0.66323 z m -34.10084,-0.0408 c 0.625315,-0.62532 0.474547,-2.42503 -0.234963,-2.80474 -1.001636,-0.53606 -4.690448,-0.41614 -5.27818,0.17159 -0.637386,0.63739 -0.638945,1.40045 -0.0047,2.30595 0.436806,0.62362 0.783552,0.7112 2.816,0.7112 1.376109,0 2.473874,-0.15602 2.701854,-0.384 z m 26.73385,-10.81573 c 1.27706,-0.53164 2.80968,-1.37381 3.40583,-1.8715 l 1.08391,-0.90489 -0.636,-1.09194 c -0.79795,-1.37 -1.73,-1.52207 -3.07691,-0.50203 -3.5242,2.66897 -9.42363,2.20873 -13.10353,-1.02227 -0.6312,-0.5542 -1.36447,-1.00764 -1.62949,-1.00764 -0.26501,0 -1.23637,0.51902 -2.15857,1.15338 -3.24867,2.23469 -2.60792,2.15634 -16.970944,2.0752 -13.69099,-0.0774 -14.468068,-0.006 -14.82611,1.36325 -0.09691,0.3706 0.0382,1.00105 0.300255,1.40099 l 0.476463,0.72718 13.672623,-0.002 c 8.206523,-10e-4 14.137203,-0.13083 14.834703,-0.32457 0.63915,-0.17753 1.68954,-0.68073 2.33421,-1.11821 0.64467,-0.43749 1.44919,-0.79543 1.78782,-0.79543 0.33863,0 1.74998,0.57971 3.13633,1.28824 4.27728,2.18603 7.24081,2.35077 11.36941,0.63203 z m -62.692707,-0.82313 c 0.595091,-0.59509 0.662545,-2.08945 0.118858,-2.63314 -0.447044,-0.44705 -6.976,-0.54793 -6.976,-0.10779 0,0.15191 0.71383,0.94391 1.58629,1.76 1.446846,1.35335 1.726138,1.48379 3.177143,1.48379 1.019563,0 1.771433,-0.18058 2.093709,-0.50286 z m 76.964077,22.24629 c 1.13368,-0.33421 2.12629,-0.54259 2.20581,-0.46307 0.0795,0.0795 -0.056,0.19963 -0.30123,0.26692 -0.24519,0.0673 -0.96002,0.28668 -1.58852,0.48753 -0.6285,0.20085 -1.4205,0.35418 -1.76,0.34073 -0.3395,-0.0135 0.31027,-0.2979 1.44394,-0.63211 z m -50.478712,-0.53962 c -2.08384,-0.71932 -1.427253,-0.79125 0.916266,-0.10038 1.133675,0.33421 1.701226,0.6005 1.261226,0.59176 -0.44,-0.009 -1.419871,-0.22986 -2.177492,-0.49138 z m 53.537492,-0.40381 c 0.88079,-0.37849 1.19392,-0.37849 0.96,0 -0.10878,0.176 -0.51327,0.30988 -0.89889,0.29751 -0.67595,-0.0217 -0.67815,-0.0324 -0.0611,-0.29751 z m 33.12,-0.12082 c 0,-0.0665 0.252,-0.31845 0.56,-0.56 0.50754,-0.39804 0.51885,-0.38672 0.12082,0.12082 -0.41804,0.53304 -0.68082,0.70255 -0.68082,0.43918 z m -90.517226,-0.72141 c -1.651907,-0.72075 -1.013199,-0.82362 0.776151,-0.12502 0.869591,0.33951 1.293075,0.61228 0.941075,0.60616 -0.352,-0.006 -1.124751,-0.22264 -1.717226,-0.48114 z m 59.317226,0.21536 c 2.7814,-1.15723 4.01288,-1.57287 3.84227,-1.29682 -0.11003,0.17802 -0.3425,0.32367 -0.51661,0.32367 -0.17412,0 -0.91267,0.288 -1.64122,0.64 -0.72856,0.352 -1.5496,0.63087 -1.82455,0.61971 -0.35507,-0.0144 -0.31448,-0.0974 0.14011,-0.28656 z m 32.8,-0.77397 c 0,-0.0665 0.252,-0.31845 0.56,-0.56 0.50754,-0.39804 0.51885,-0.38672 0.12082,0.12082 -0.41804,0.53304 -0.68082,0.70255 -0.68082,0.43918 z m -94.56,-0.51918 c -0.250298,-0.40499 0.173321,-0.40499 0.8,0 0.41366,0.26732 0.405214,0.31087 -0.06111,0.3151 -0.297613,0.003 -0.630112,-0.1391 -0.738886,-0.3151 z m -1.76,-0.64932 c -0.264,-0.16042 -1.596,-0.80651 -2.96,-1.43576 -1.364,-0.62924 -2.48,-1.20488 -2.48,-1.27919 0,-0.14858 0.349077,-0.0122 2.72,1.06241 3.423447,1.5517 4.142686,1.93031 3.68,1.93714 -0.264,0.004 -0.696,-0.12418 -0.96,-0.2846 z m 72.16,-1.89506 c 2.464,-1.20942 5.272,-2.64709 6.24,-3.19481 0.968,-0.54773 1.419,-0.74048 1.00222,-0.42834 -1.30455,0.97702 -3.60994,2.26439 -6.76222,3.77614 -1.672,0.80185 -3.29005,1.59594 -3.59566,1.76465 -0.30561,0.1687 -0.73761,0.30102 -0.96,0.29402 -0.22239,-0.007 1.61166,-1.00224 4.07566,-2.21166 z m -103.070403,1.18438 -0.609596,-0.72 0.72,0.60959 c 0.676622,0.57287 0.865677,0.83041 0.609596,0.83041 -0.06072,0 -0.384723,-0.324 -0.72,-0.72 z m 129.470403,-0.08 c 0.41336,-0.44 0.82356,-0.8 0.91156,-0.8 0.088,0 -0.1782,0.36 -0.59156,0.8 -0.41336,0.44 -0.82356,0.8 -0.91156,0.8 -0.088,0 0.1782,-0.36 0.59156,-0.8 z m -131.864219,-2 -0.77578,-0.88 0.88,0.77578 c 0.822492,0.72508 1.026748,0.98422 0.77578,0.98422 -0.05732,0 -0.453321,-0.396 -0.88,-0.88 z m 134.264219,-0.08 c 0.31855,-0.352 0.65119,-0.64 0.73919,-0.64 0.088,0 -0.10064,0.288 -0.41919,0.64 -0.31856,0.352 -0.65119,0.64 -0.73919,0.64 -0.088,0 0.10063,-0.288 0.41919,-0.64 z M 68.183189,186.39706 c -0.7431,-0.38653 -1.3551,-0.81541 -1.36,-0.95307 -0.0073,-0.20608 2.717458,1.14063 3.164425,1.56399 0.359681,0.34069 -0.598911,0.0161 -1.804425,-0.61092 z m 110.311091,-0.64291 c 0,-0.0551 0.468,-0.52308 1.04,-1.04 l 1.04,-0.93987 -0.93987,1.04 c -0.87609,0.96942 -1.14013,1.18709 -1.14013,0.93987 z M 64.300939,184.08114 c -0.942337,-0.58741 -1.961676,-1.29276 -2.265197,-1.56744 -0.30352,-0.27468 -0.698199,-0.49942 -0.877062,-0.49942 -0.178864,0 -0.585844,-0.288 -0.904399,-0.64 -0.318556,-0.352 -0.71104,-0.64 -0.872187,-0.64 -0.242031,0 -2.532631,-1.76417 -3.947139,-3.04 -0.19513,-0.176 -1.134608,-0.95984 -2.087728,-1.74187 -2.144519,-1.75955 -8.041315,-7.66554 -9.634729,-9.64976 -4.185802,-5.21239 -8.041775,-11.14924 -10.579276,-16.28837 -2.113325,-4.28006 -4.414295,-9.73123 -4.382378,-10.38219 0.0091,-0.18579 0.450556,0.74219 0.98099,2.06219 4.925325,12.25679 10.464988,20.80482 18.977969,29.28413 5.478499,5.45683 8.55018,8.01673 13.62617,11.35587 1.739051,1.144 3.422101,2.25153 3.74011,2.46118 1.346207,0.8875 -0.210184,0.26121 -1.775144,-0.71432 z m 92.213501,-0.56568 c 7.89661,-5.18827 16.69191,-13.25598 21.56349,-19.77963 1.16732,-1.56319 2.18062,-2.78394 2.25179,-2.71278 0.0712,0.0712 -0.77936,1.3313 -1.89006,2.80031 -4.08297,5.40016 -10.36807,11.58498 -16.59908,16.33424 -2.18938,1.66874 -5.36128,3.77886 -5.64874,3.75786 -0.14166,-0.0103 0.004,-0.19035 0.3226,-0.4 z m 26.13984,-1.92131 c 0,-0.0551 0.468,-0.52308 1.04,-1.04 l 1.04,-0.93987 -0.93987,1.04 c -0.87609,0.96942 -1.14013,1.18709 -1.14013,0.93987 z m -148.990403,-3.17987 -0.609596,-0.72 0.72,0.60959 c 0.676622,0.57287 0.865677,0.83041 0.609596,0.83041 -0.06072,0 -0.384722,-0.324 -0.72,-0.72 z m 152.350403,-0.56 c 0.31855,-0.352 0.65119,-0.64 0.73919,-0.64 0.088,0 -0.10064,0.288 -0.41919,0.64 -0.31856,0.352 -0.65119,0.64 -0.73919,0.64 -0.088,0 0.10063,-0.288 0.41919,-0.64 z m 1.76,-2.04082 c 0,-0.0665 0.252,-0.31845 0.56,-0.56 0.50754,-0.39804 0.51885,-0.38672 0.12082,0.12082 -0.41804,0.53304 -0.68082,0.70255 -0.68082,0.43918 z m -5.79094,-17.5625 c 0.85843,-1.27783 2.25669,-3.59343 3.10726,-5.14579 0.85057,-1.55235 1.60391,-2.6502 1.67409,-2.43966 0.0702,0.21053 0.002,0.47413 -0.15141,0.58578 -0.25132,0.18285 -0.99438,1.45312 -2.12649,3.63527 -0.77606,1.49585 -3.59408,5.67948 -3.82836,5.68358 -0.12972,0.002 0.46649,-1.04136 1.32491,-2.31918 z M 38.837691,154.20669 c -1.636741,-2.60331 -3.38341,-6.04933 -3.38341,-6.67516 0,-0.36748 -0.366706,-1.10395 -0.814901,-1.6366 -0.740199,-0.87968 -4.625099,-10.7722 -4.625099,-11.77737 0,-0.2328 0.125095,-0.42328 0.277989,-0.42328 0.433328,0 -0.517246,-3.62955 -1.053214,-4.02146 -1.059746,-0.7749 -2.093141,-7.69936 -2.289098,-15.33854 -0.08578,-3.344 -0.214613,-6.34996 -0.286298,-6.67991 -0.383223,-1.76389 1.318605,-12.981456 2.852012,-18.798976 3.668865,-13.91913 11.871383,-27.89702 22.103089,-37.66582 14.212047,-13.56905 30.018702,-20.9866 49.469119,-23.21425 5.23332,-0.59938 17.98474,-0.18505 23.0064,0.74754 14.80228,2.74896 27.17894,8.31439 38.39869,17.2668 4.07607,3.25235 10.44453,9.69734 13.67342,13.83772 8.45252,10.8386 14.36675,24.63064 16.58097,38.6669 0.71035,4.503076 0.98809,16.129186 0.48541,20.319996 -0.62747,5.23126 -1.30687,8.86708 -1.94884,10.42925 -0.33208,0.8081 -0.67735,2.2481 -0.76726,3.2 -0.44324,4.69243 -7.48531,20.80242 -9.75576,22.31804 -1.13972,0.76081 -5.26983,0.71485 -6.74663,-0.0751 -0.616,-0.32949 -2.13775,-1.65953 -3.38167,-2.95565 -1.24392,-1.29611 -2.37919,-2.35657 -2.52283,-2.35657 -0.14363,0 -1.31617,1.00215 -2.60562,2.22701 -2.93265,2.78573 -4.34641,3.53299 -6.68416,3.53299 -2.03484,0 -5.0394,-1.22153 -6.86622,-2.79152 l -1.1005,-0.94578 0.83416,-1.41135 c 0.45879,-0.77624 3.28956,-4.93935 6.2906,-9.25135 3.00104,-4.312 6.63625,-9.568 8.07824,-11.68 1.44199,-2.112 4.05225,-5.82417 5.80058,-8.24927 1.82083,-2.52567 3.10451,-4.60282 3.00492,-4.86235 -0.18405,-0.47962 -0.23319,-0.49028 -5.9675,-1.29381 -8.39443,-1.17628 -17.95652,-3.20826 -23.38981,-4.97041 -2.1836,-0.7082 -5.69819,-1.84749 -7.81019,-2.53176 -2.112,-0.68427 -5.856,-1.84388 -8.32,-2.57691 -2.464,-0.73302 -6.91526,-2.11189 -9.89168,-3.06413 -2.97642,-0.95225 -5.72565,-1.731356 -6.1094,-1.731356 -0.68471,0 -0.70164,0.11198 -0.90742,5.999996 -0.11533,3.3 -0.2101,15.45017 -0.2106,27.00037 l -9e-4,21.00038 -1.84,0.15953 c -1.012,0.0877 -1.948,0.0971 -2.08,0.0207 -0.132,-0.0763 -0.24,-12.29829 -0.24,-27.15991 0,-25.52263 -0.0311,-27.020876 -0.56,-27.016986 -0.308,0.002 -1.496,0.300056 -2.64,0.661756 -1.144,0.36169 -4.24887,1.28833 -6.899718,2.0592 -2.650846,0.77087 -5.458846,1.60899 -6.24,1.86248 -0.781155,0.2535 -4.948282,1.61761 -9.260282,3.03136 -8.022994,2.63046 -10.525244,3.31825 -16.96,4.66181 -2.024,0.4226 -6.631999,1.42265 -10.239999,2.22233 -3.608,0.79968 -7.1,1.55166 -7.76,1.67106 -0.855757,0.15482 -1.2,0.38046 -1.2,0.78653 0,0.31319 1.692,2.95493 3.76,5.87053 4.538417,6.39857 14.24076,20.7989 18.5147,27.47975 l 0.761873,1.19092 -1.730413,1.30648 c -4.930615,3.72265 -9.183047,3.33625 -13.283501,-1.207 l -1.896018,-2.10077 -2.099732,1.92402 c -2.892342,2.65031 -5.545376,3.91494 -8.502757,4.05303 l -2.296203,0.10722 z M 153.21428,109.68276 c 1.37401,-0.36672 4.52037,-0.78948 7.36,-0.98893 2.728,-0.19161 5.14,-0.49453 5.36,-0.67315 0.50552,-0.41044 0.52304,-2.55536 0.0249,-3.05347 -0.43199,-0.43199 -16.22051,-0.17397 -17.46493,0.28543 -0.65199,0.24069 -0.72,0.47562 -0.72,2.48705 0,1.47759 0.13392,2.27529 0.4,2.38266 0.84474,0.34086 2.73287,0.17617 5.04,-0.43959 z m -79.640367,0.0115 c 0.177991,0 0.267963,-1.04351 0.213828,-2.48 l -0.09346,-2.48 -9.097973,-0.0851 c -7.065381,-0.0661 -9.155419,0.005 -9.3551,0.32 -0.40115,0.63198 -0.311275,2.69101 0.133074,3.04872 0.22,0.1771 2.272,0.41912 4.56,0.53782 4.362955,0.22636 12.016584,1.04846 12.288023,1.3199 0.0872,0.0872 0.357846,0.0821 0.601433,-0.0114 0.243588,-0.0935 0.581167,-0.16995 0.750176,-0.16995 z m 10.066997,-6.12765 c 1.041354,-0.20221 2.07337,-0.50784 2.29337,-0.67919 0.291037,-0.22666 0.4,-1.73918 0.4,-5.552346 v -5.24081 h -0.818297 c -1.436372,0 -3.604017,0.68586 -4.180348,1.3227 -0.45757,0.50561 -0.583657,1.41868 -0.700206,5.07065 -0.07818,2.449696 -0.05644,4.677346 0.04831,4.950326 0.227864,0.5938 0.500652,0.60567 2.957172,0.12867 z m 56.46129,-0.1219 c 0.49856,-0.60073 0.25306,-8.984876 -0.29296,-10.005136 -0.3447,-0.64406 -2.62294,-1.34531 -4.37071,-1.34531 h -0.78425 v 5.42111 c 0,5.952876 -0.0606,5.774476 2.08,6.127616 2.16444,0.35707 2.94517,0.31111 3.36792,-0.19828 z m -11.36792,-8.630446 v -5.76 l -18.15324,-0.0826 -18.153242,-0.0826 -0.178358,0.72264 c -0.0981,0.39745 -0.137139,2.95464 -0.08676,5.68264 0.08824,4.778146 0.116502,4.963546 0.770847,5.056906 0.373586,0.0533 4.117586,-1.082116 8.320003,-2.523166 4.20241,-1.44104 8.14475,-2.67958 8.76075,-2.7523 0.77617,-0.0916 2.39709,0.32231 5.28,1.34837 9.85886,3.50891 12.19634,4.278896 12.8,4.216416 0.61384,-0.0635 0.64,-0.30165 0.64,-5.826226 z m -0.86421,-11.81136 c 0.0673,-1.55272 -0.028,-2.28991 -0.32,-2.4751 -0.47368,-0.30046 -32.894284,-0.37683 -33.669618,-0.0793 -0.392143,0.15048 -0.506172,0.67913 -0.506172,2.34667 0,1.18384 0.09725,2.24968 0.21611,2.36854 0.11886,0.11886 7.85886,0.17886 17.2,0.13333 l 16.98389,-0.0828 z m -8.00372,-9.39329 0.0921,-2.96464 -9.85207,0.0846 -9.85207,0.0846 -0.0944,2.53172 c -0.0519,1.39244 -0.0196,2.72656 0.0718,2.9647 0.13562,0.35341 1.94678,0.41742 9.85439,0.34829 l 9.68824,-0.0847 z m -0.43824,-6.66959 c 0.41857,-0.16062 0.50617,-0.79574 0.50617,-3.66984 v -3.47561 l -3.76,-0.0902 -3.76,-0.0901 -0.0843,-10.85959 c -0.0935,-12.03826 -0.0903,-12.02041 -2.1557,-12.02041 -2.06698,0 -2.06904,0.0115 -2.08897,11.62914 -0.01,5.75778 -0.0993,10.68068 -0.19873,10.93977 -0.145,0.37785 -0.92607,0.47109 -3.94654,0.47109 h -3.76576 l -0.2,1 c -0.11,0.55 -0.2,2.05484 -0.2,3.3441 0,1.89488 0.107316,2.4066 0.56,2.67026 0.60365,0.3516 18.20835,0.49119 19.09383,0.1514 z m 67.65014,82.514236 c 0.13383,-0.308 0.50722,-1.17798 0.82974,-1.93328 0.32252,-0.7553 0.64657,-1.31311 0.72011,-1.23957 0.15088,0.15088 -1.4352,3.73285 -1.65289,3.73285 -0.0772,0 -0.0308,-0.252 0.10304,-0.56 z m 1.89002,-4.26565 c 0.11315,-0.43271 0.25821,-0.57776 0.33809,-0.3381 0.077,0.23086 -0.0122,0.57189 -0.19818,0.75784 -0.23746,0.23747 -0.27911,0.11253 -0.13991,-0.41974 z m 1.08412,-2.61435 c 1.17293,-2.94652 1.19968,-3.00039 1.2216,-2.46011 0.0112,0.27494 -0.26771,1.09599 -0.61971,1.82454 -0.352,0.72856 -0.64,1.54761 -0.64,1.82011 0,0.2725 -0.1419,0.49546 -0.31533,0.49546 -0.17343,0 -0.0144,-0.756 0.35344,-1.68 z m 1.26438,-3.34112 c 0.0124,-0.14238 0.14625,-0.54688 0.29751,-0.89888 0.26515,-0.61704 0.27582,-0.61484 0.29751,0.0611 0.0124,0.38562 -0.12151,0.79011 -0.29751,0.89889 -0.176,0.10877 -0.30988,0.0813 -0.29751,-0.0611 z M 27.648622,136.49519 c -0.458888,-1.47239 -0.826023,-2.88494 -0.815856,-3.13899 0.01017,-0.25406 0.4433,0.89295 0.962517,2.54889 0.519217,1.65595 0.886352,3.0685 0.815856,3.139 -0.0705,0.0705 -0.503629,-1.07651 -0.962517,-2.5489 z m 164.308148,0.81797 c 0.0124,-0.14238 0.14625,-0.54688 0.29751,-0.89888 0.26515,-0.61704 0.27582,-0.61484 0.29751,0.0611 0.0124,0.38562 -0.12151,0.79011 -0.29751,0.89889 -0.176,0.10877 -0.30988,0.0813 -0.29751,-0.0611 z m 0.64,-1.92 c 0.0124,-0.14238 0.14625,-0.54688 0.29751,-0.89888 0.26515,-0.61704 0.27582,-0.61484 0.29751,0.0611 0.0124,0.38562 -0.12151,0.79011 -0.29751,0.89889 -0.176,0.10877 -0.30988,0.0813 -0.29751,-0.0611 z m 0.65431,-2.01888 c 0.0148,-0.264 0.14229,-0.84 0.2832,-1.28 l 0.2562,-0.8 0.027,0.8 c 0.0149,0.44 -0.11259,1.016 -0.2832,1.28 -0.27573,0.42666 -0.3072,0.42666 -0.2832,0 z M 26.381735,132.19839 c -0.560625,-1.91522 -1.517323,-7.2012 -1.391294,-7.68721 0.107206,-0.41342 0.16094,-0.3502 0.189618,0.2231 0.02201,0.44 0.396988,2.37373 0.833282,4.29717 0.436294,1.92345 0.736137,3.5543 0.666319,3.62412 -0.06982,0.0698 -0.203885,-0.13591 -0.297925,-0.45718 z m 167.504185,-1.22411 c -0.006,-0.176 0.25877,-1.472 0.58931,-2.88 0.33054,-1.408 0.61405,-2.23807 0.63002,-1.84459 0.016,0.39347 -0.13302,1.40147 -0.33109,2.24 -0.39179,1.65866 -0.86961,2.99524 -0.88824,2.48459 z m 16.31362,-4.50667 c 0.0154,-0.37278 0.0912,-0.44861 0.19333,-0.19333 0.0924,0.231 0.0811,0.507 -0.0253,0.61333 -0.10633,0.10633 -0.18196,-0.0827 -0.16807,-0.42 z m -14.85056,-3.01333 c 0.1056,-0.968 0.24449,-1.82 0.30865,-1.89334 0.2479,-0.28335 0.0564,2.40758 -0.21449,3.01334 -0.18688,0.41796 -0.21955,0.0294 -0.0942,-1.12 z M 9.2395445,123.90761 c 0.015355,-0.37278 0.091181,-0.44861 0.1933333,-0.19333 0.092439,0.231 0.08107,0.507 -0.025263,0.61333 -0.1063334,0.10633 -0.1819649,-0.0827 -0.1680703,-0.42 z m 15.2326125,-1.2564 c -0.115958,-0.70231 -0.194157,-1.78093 -0.173777,-2.39693 0.02323,-0.70212 0.139233,-0.34394 0.310913,0.96 0.303838,2.30772 0.194975,3.44841 -0.137136,1.43693 z m -15.5526125,-0.9836 c 0.015355,-0.37278 0.091181,-0.44861 0.1933333,-0.19333 0.092439,0.231 0.08107,0.507 -0.025263,0.61333 -0.1063334,0.10633 -0.1819649,-0.0827 -0.1680703,-0.42 z m 201.9199955,-0.32 c 0.0154,-0.37278 0.0912,-0.44861 0.19333,-0.19333 0.0924,0.231 0.0811,0.507 -0.0253,0.61333 -0.10633,0.10633 -0.18196,-0.0827 -0.16807,-0.42 z m -14.89715,-2.05333 c 0.0805,-0.968 0.14758,-2.444 0.14911,-3.28 l 0.003,-1.52 5.04,0.071 5.04,0.071 -4.88,0.0973 -4.88,0.0973 -0.0379,2.15166 c -0.0208,1.18342 -0.15992,2.58367 -0.30911,3.11167 -0.20281,0.71778 -0.23433,0.51593 -0.12492,-0.8 z m -187.3057251,-1.44 c 0.00652,-0.528 0.07824,-0.70526 0.1593735,-0.39391 0.081134,0.31135 0.075798,0.74335 -0.011857,0.96 -0.087656,0.21665 -0.154038,-0.0381 -0.1475165,-0.56609 z m 15.1649671,-1.10314 -0.217755,-1.9247 -7.104798,-0.0925 -7.1047977,-0.0925 7.2485797,-0.0735 7.24858,-0.0736 0.225119,1.93963 c 0.123815,1.0668 0.157103,2.00765 0.07397,2.09078 -0.08313,0.0831 -0.249135,-0.71497 -0.3689,-1.77355 z m 187.406888,0.94314 c 0,-0.616 0.0659,-0.868 0.14634,-0.56 0.0805,0.308 0.0805,0.812 0,1.12 -0.0805,0.308 -0.14634,0.056 -0.14634,-0.56 z m -113.03424,-5.28 v -3.06804 l 2.32,0.094 2.32,0.094 v 2.88 2.88 l -2.32,0.094 -2.32,0.094 z m 19.26754,-0.08 0.0925,-2.8 1.57879,-0.0999 c 2.98753,-0.1891 3.06121,-0.11723 3.06121,2.98604 v 2.7139 h -2.41246 -2.41246 z m 90.72532,2.24904 c 0.56808,-0.0707 1.57608,-0.0718 2.24,-0.003 0.66393,0.0693 0.19914,0.12711 -1.03286,0.12853 -1.232,0.001 -1.77521,-0.0553 -1.20714,-0.12595 z M 9.9439367,107.53867 c 0.8413103,-0.0661 2.1373103,-0.0653 2.8799993,0.002 0.74269,0.0671 0.05434,0.12123 -1.529655,0.12025 -1.5839997,-9.7e-4 -2.1916547,-0.0559 -1.3503443,-0.12202 z m 200.7706033,0.007 c 0.38515,-0.0716 0.76649,-0.34035 0.84743,-0.59715 0.0933,-0.29612 0.12881,-0.25977 0.097,0.0994 -0.0325,0.36715 -0.3305,0.57713 -0.84743,0.59715 -0.65676,0.0254 -0.67385,0.008 -0.097,-0.0994 z M 24.039286,105.37428 c 0.0014,-1.232 0.05926,-1.69679 0.12853,-1.03286 0.06927,0.66392 0.06811,1.67192 -0.0026,2.24 -0.07069,0.56807 -0.127369,0.0249 -0.125949,-1.20714 z m 172.118574,0.28466 c -0.035,-1.07543 -0.13338,-2.65943 -0.21868,-3.52 l -0.15511,-1.56466 0.32713,1.28 c 0.17991,0.704 0.27832,2.288 0.21868,3.52 l -0.10844,2.24 z M 8.6614379,104.25428 c 0,-0.792 0.062405,-1.116 0.138678,-0.72 0.076273,0.396 0.076273,1.044 0,1.44 -0.076273,0.396 -0.138678,0.072 -0.138678,-0.72 z m 202.5233621,-1.6 c 0,-0.44 0.0726,-0.62 0.16141,-0.4 0.0888,0.22 0.0888,0.58 0,0.8 -0.0888,0.22 -0.16141,0.04 -0.16141,-0.4 z M 24.286178,101.18761 c 0.01754,-0.86533 0.151047,-1.933326 0.296673,-2.373326 0.161162,-0.48694 0.19417,0.0766 0.08435,1.439996 -0.21297,2.64403 -0.426298,3.16659 -0.381023,0.93333 z M 8.9195445,99.907614 c 0.015355,-0.37278 0.091181,-0.44861 0.1933333,-0.19333 0.092439,0.231 0.08107,0.506996 -0.025263,0.613326 -0.1063334,0.10633 -0.1819649,-0.0827 -0.1680703,-0.419996 z M 195.50112,99.294284 c -0.0306,-0.528 -0.12968,-1.32 -0.22024,-1.76 l -0.16465,-0.8 0.34416,0.78881 c 0.1893,0.43384 0.2884,1.22584 0.22024,1.76 l -0.12393,0.971186 z M 24.916772,96.547614 c 0.01237,-0.60133 0.153574,-1.38133 0.313787,-1.73333 0.196088,-0.43083 0.227631,-0.11706 0.09651,0.96 -0.231943,1.90518 -0.441711,2.30056 -0.410294,0.77333 z m 185.602768,0.16 c 0.0154,-0.37278 0.0912,-0.44861 0.19333,-0.19333 0.0924,0.231 0.0811,0.507 -0.0253,0.61333 -0.10633,0.10633 -0.18196,-0.0827 -0.16807,-0.42 z m -15.65732,-1.14716 c -0.0264,-0.46961 -0.13081,-1.11761 -0.2321,-1.44 -0.17408,-0.55407 -0.1642,-0.55506 0.18046,-0.018 0.20055,0.31249 0.305,0.96049 0.23211,1.44 l -0.13252,0.87184 z M 25.594633,92.894284 c -0.0085,-0.528 0.108388,-1.248 0.259648,-1.6 l 0.275017,-0.64 -0.01537,0.64 c -0.0085,0.352 -0.125295,1.072 -0.259648,1.6 l -0.244279,0.96 z m 168.623227,-0.37383 c -0.024,-0.38161 -0.12645,-0.95761 -0.22774,-1.28 -0.17434,-0.55491 -0.16469,-0.55581 0.18105,-0.017 0.20086,0.31306 0.30335,0.88906 0.22774,1.28 -0.13734,0.71009 -0.13752,0.71011 -0.18105,0.017 z M 26.179181,89.827614 c 0.0027,-0.42533 0.146494,-0.98933 0.319553,-1.25333 0.221374,-0.33771 0.253727,-0.14798 0.109135,0.64 -0.253244,1.38009 -0.435196,1.64041 -0.428688,0.61333 z m 167.394309,0.0267 c -0.0264,-0.264 -0.12789,-0.84 -0.2256,-1.28 -0.15355,-0.69149 -0.1284,-0.7228 0.18542,-0.2308 0.19969,0.31306 0.30121,0.88906 0.2256,1.28 -0.0756,0.39094 -0.15905,0.4948 -0.18542,0.2308 z m -166.754309,-2.4267 c 0.0027,-0.33733 0.151069,-0.82933 0.32972,-1.09333 0.237219,-0.35055 0.266907,-0.2211 0.110084,0.48 -0.263191,1.17661 -0.446345,1.43203 -0.439804,0.61333 z m 165.147189,-3.10569 c -0.58261,-1.7972 -1.13417,-3.48364 -1.22569,-3.74764 -0.10748,-0.31005 -0.0594,-0.3667 0.13575,-0.16 0.39359,0.41683 2.49155,6.83296 2.29766,7.02686 -0.0816,0.0816 -0.62511,-1.32201 -1.20772,-3.11922 z m -164.484698,1.05236 c -0.0097,-0.264 0.121999,-0.696 0.292609,-0.96 0.378023,-0.58495 0.378023,-0.0797 0,0.8 -0.181338,0.42199 -0.28101,0.47649 -0.292609,0.16 z m 0.612609,-2.06112 c 0,-0.25361 0.130571,-0.54181 0.290157,-0.64044 0.159586,-0.0986 0.214792,0.10887 0.122678,0.46111 -0.195396,0.7472 -0.412835,0.84165 -0.412835,0.17933 z m 0.662491,-1.68 c -0.01237,-0.38561 0.121509,-0.79011 0.297509,-0.89888 0.37849,-0.23392 0.37849,0.0792 0,0.96 -0.265149,0.61703 -0.275825,0.61484 -0.297509,-0.0611 z m 0.627309,-1.53888 c 0,-0.176 0.13959,-0.536 0.3102,-0.8 0.17061,-0.264 0.3102,-0.336 0.3102,-0.16 0,0.176 -0.13959,0.536 -0.3102,0.8 -0.17061,0.264 -0.3102,0.336 -0.3102,0.16 z m 160.864189,-0.77435 c -0.1392,-0.53227 -0.0975,-0.65721 0.13991,-0.41975 0.18596,0.18595 0.27514,0.52698 0.19818,0.75784 -0.0799,0.23967 -0.22494,0.0946 -0.33809,-0.33809 z M 30.019181,78.273164 c -0.0027,-0.29761 0.1391,-0.63011 0.3151,-0.73888 0.404991,-0.2503 0.404991,0.17332 0,0.8 -0.267328,0.41366 -0.310877,0.40521 -0.3151,-0.0611 z m 159.675099,-0.007 c 0,-0.0958 -0.21793,-0.69584 -0.4843,-1.33333 -0.26636,-0.6375 -0.41711,-1.15908 -0.33501,-1.15908 0.2843,0 1.22222,2.26376 1.0212,2.46477 -0.11104,0.11104 -0.20189,0.12348 -0.20189,0.0276 z m -159.039999,-1.6735 c 0,-0.25361 0.13057,-0.54181 0.290157,-0.64044 0.159586,-0.0986 0.214791,0.10887 0.122678,0.46111 -0.195396,0.7472 -0.412835,0.84165 -0.412835,0.17933 z m 0.64,-1.35639 c 0,-0.39796 0.952745,-2.34249 1.147732,-2.34249 0.150974,0 -0.747796,2.26673 -0.997962,2.51689 -0.08237,0.0824 -0.14977,0.004 -0.14977,-0.1744 z m 157.119999,0.14992 c 0,-0.0958 -0.21793,-0.69584 -0.4843,-1.33333 -0.26636,-0.6375 -0.41711,-1.15908 -0.33501,-1.15908 0.2843,0 1.22222,2.26375 1.0212,2.46477 -0.11104,0.11104 -0.20189,0.12348 -0.20189,0.0276 z M 32.588446,72.526774 c -0.0209,-0.30616 1.796616,-3.70031 2.542023,-4.74714 0.354096,-0.49728 0.643812,-0.97935 0.643812,-1.07126 0,-0.0919 0.72,-1.25435 1.6,-2.5832 0.88,-1.32885 1.6,-2.56342 1.6,-2.74349 0,-0.18007 0.112952,-0.3274 0.251005,-0.3274 0.138053,0 0.485369,-0.396 0.771812,-0.88 0.286444,-0.484 0.837818,-1.24 1.225276,-1.68 0.387458,-0.44 1.084143,-1.302 1.548188,-1.91556 0.464045,-0.61355 1.157503,-1.47755 1.541017,-1.92 0.383514,-0.44244 0.995514,-1.15048 1.36,-1.57341 0.364486,-0.42293 0.662702,-0.61142 0.662702,-0.41888 0,0.19254 -0.143611,0.43883 -0.319135,0.54731 -0.509979,0.31519 -5.197581,6.21254 -6.658773,8.37723 -1.215675,1.80098 -4.286221,6.8324 -6.047927,9.91018 -0.388209,0.67822 -0.712209,1.13975 -0.72,1.02562 z m 154.128364,-1.07651 c -0.2927,-0.61379 -0.4662,-1.11598 -0.38557,-1.11598 0.21896,0 1.19037,1.95933 1.04399,2.10572 -0.0694,0.0694 -0.36573,-0.37595 -0.65842,-0.98974 z m -1.60478,-2.95438 c -0.46514,-0.83688 -1.15056,-1.9896 -1.52315,-2.5616 -0.3726,-0.572 -0.51931,-1.04 -0.32603,-1.04 0.19329,0 0.35143,0.15777 0.35143,0.3506 0,0.19283 0.27114,0.73283 0.60253,1.2 0.90882,1.28117 2.00508,3.30845 1.86488,3.44865 -0.0682,0.0682 -0.50452,-0.56077 -0.96966,-1.39765 z m -3.21977,-5.2016 c -0.46588,-0.704 -0.72754,-1.28 -0.58145,-1.28 0.14609,0 0.58935,0.576 0.98502,1.28 0.39567,0.704 0.65732,1.28 0.58145,1.28 -0.0759,0 -0.51913,-0.576 -0.98502,-1.28 z m -1.31798,-1.92 c -0.10878,-0.176 -0.0453,-0.32 0.14111,-0.32 0.18639,0 0.33889,0.144 0.33889,0.32 0,0.176 -0.0635,0.32 -0.14112,0.32 -0.0776,0 -0.23011,-0.144 -0.33888,-0.32 z m -1.91883,-2.64 c -1.3897,-1.81276 -1.41659,-1.87779 -0.28721,-0.6946 1.13884,1.19311 2.2176,2.6946 1.93596,2.6946 -0.0635,0 -0.80547,-0.9 -1.64875,-2 z m -3.35569,-4.16 c -1.43405,-1.6966 -1.4776,-1.78156 -0.28706,-0.56 1.56015,1.60079 2.35777,2.56 2.12875,2.56 -0.0832,0 -0.91192,-0.9 -1.84169,-2 z m -127.205479,-4.08 c 0.866767,-0.88 1.647941,-1.6 1.735941,-1.6 0.088,0 -0.549174,0.72 -1.415941,1.6 -0.866768,0.88 -1.647942,1.6 -1.735942,1.6 -0.088,0 0.549174,-0.72 1.415942,-1.6 z m 124.139869,0.56 -0.93987,-1.04 1.04,0.93987 c 0.572,0.51692 1.04,0.98492 1.04,1.04 0,0.24722 -0.26404,0.0296 -1.14013,-0.93987 z m -3.3508,-3.02771 -1.74907,-1.8277 1.64202,1.4277 c 1.37377,1.19447 2.27218,2.22771 1.937,2.22771 -0.0445,0 -0.86796,-0.82247 -1.82995,-1.82771 z M 52.802839,46.235104 c 1.357707,-1.32052 2.941707,-2.71632 3.52,-3.10177 l 1.051442,-0.70081 -1.12,1.02423 c -0.616,0.56333 -2.2,1.95913 -3.52,3.10177 l -2.4,2.07753 z m 136.210621,0.49918 c -0.39804,-0.50754 -0.38672,-0.51886 0.12082,-0.12082 0.53304,0.41804 0.70255,0.68082 0.43918,0.68082 -0.0665,0 -0.31845,-0.252 -0.56,-0.56 z m -23.01443,-1.21623 c -0.42044,-0.44754 -1.52867,-1.40331 -2.46273,-2.12393 -0.93407,-0.72063 -1.61481,-1.39372 -1.51276,-1.49577 0.10205,-0.10205 0.28571,-0.0437 0.40814,0.12959 0.12243,0.17333 1.0146,0.96051 1.9826,1.7493 2.26394,1.8448 2.66804,2.23566 2.49269,2.41101 -0.0789,0.0789 -0.4875,-0.22266 -0.90794,-0.6702 z m 21.73443,-0.38377 c -0.39804,-0.50754 -0.38672,-0.51886 0.12082,-0.12082 0.53304,0.41804 0.70255,0.68082 0.43918,0.68082 -0.0665,0 -0.31845,-0.252 -0.56,-0.56 z m -155.319179,-0.4 c 0.318555,-0.352 0.651192,-0.64 0.739192,-0.64 0.088,0 -0.100637,0.288 -0.419192,0.64 -0.318556,0.352 -0.651192,0.64 -0.739192,0.64 -0.088,0 0.100636,-0.288 0.419192,-0.64 z m 4.64,-4.96 c 1.665048,-1.672 3.099359,-3.04 3.187359,-3.04 0.088,0 -1.202311,1.368 -2.867359,3.04 -1.665048,1.672 -3.09936,3.04 -3.18736,3.04 -0.088,0 1.202312,-1.368 2.86736,-3.04 z m 144.475379,-1.2 -4.15538,-4.24 4.24,4.15538 c 3.9386,3.86 4.38504,4.32462 4.15538,4.32462 -0.0465,0 -1.95454,-1.908 -4.24,-4.24 z m -123.991418,3.69628 c 0.0022,-0.14095 0.506178,-0.58161 1.12,-0.97922 1.43836,-0.93174 1.436131,-0.71717 -0.004,0.38124 -0.616,0.46985 -1.118218,0.73894 -1.116039,0.59798 z m 102.156038,-1.72808 c -0.748,-0.5298 -1.36,-1.0286 -1.36,-1.10845 0,-0.1564 1.33567,0.54382 1.6,0.8388 0.088,0.0982 0.51604,0.4222 0.9512,0.72 0.43516,0.29779 0.65116,0.53503 0.48,0.52718 -0.17116,-0.008 -0.9232,-0.44774 -1.6712,-0.97753 z m -99.599999,-0.22946 c 0,-0.15181 0.36,-0.44004 0.799999,-0.64052 0.44,-0.20048 0.8,-0.31215 0.8,-0.24817 0,0.064 -0.36,0.35222 -0.8,0.64052 -0.439999,0.2883 -0.799999,0.39998 -0.799999,0.24817 z m 1.919999,-1.33874 c 0,-0.176 0.152499,-0.32 0.338886,-0.32 0.186387,0 0.249888,0.144 0.141114,0.32 -0.108773,0.176 -0.261272,0.32 -0.338885,0.32 -0.07761,0 -0.141115,-0.144 -0.141115,-0.32 z m 93.99652,-0.86054 c -1.01391,-0.63755 -1.78345,-1.2192 -1.71009,-1.29256 0.13308,-0.13308 3.71357,2.14081 3.71357,2.3584 0,0.1864 -0.0779,0.14497 -2.00348,-1.06584 z m -92.07652,-0.38266 c 0,-0.19624 0.137664,-0.3568 0.305918,-0.3568 0.168255,0 1.068255,-0.456 2,-1.01334 2.420821,-1.44804 7.653316,-4.10789 8.065387,-4.09991 0.191783,0.004 -1.667305,1.05556 -4.131305,2.33742 -2.464,1.28187 -4.876,2.59139 -5.36,2.91005 -0.514097,0.33848 -0.88,0.43103 -0.88,0.22258 z m 88.24031,-1.85823 c -0.83583,-0.46522 -1.46478,-0.90077 -1.39766,-0.9679 0.13413,-0.13412 2.41582,1.07656 2.90135,1.53948 0.49557,0.4725 0.10625,0.32451 -1.50369,-0.57158 z M 42.334281,34.814284 c 0.318555,-0.352 0.651192,-0.64 0.739192,-0.64 0.088,0 -0.100637,0.288 -0.419192,0.64 -0.318556,0.352 -0.651192,0.64 -0.739192,0.64 -0.088,0 0.100636,-0.288 0.419192,-0.64 z m 107.359999,-0.32 c -0.28841,-0.18639 -0.32788,-0.31216 -0.0989,-0.3151 0.20962,-0.003 0.47011,0.1391 0.57889,0.3151 0.24554,0.39729 0.13476,0.39729 -0.48,0 z m -1.28,-0.64 c -0.28841,-0.18639 -0.32788,-0.31216 -0.0989,-0.3151 0.20962,-0.003 0.47011,0.1391 0.57889,0.3151 0.24554,0.39729 0.13476,0.39729 -0.48,0 z M 44.094281,33.413464 c 0,-0.0665 0.252,-0.31845 0.56,-0.56 0.507537,-0.39804 0.518856,-0.38672 0.120817,0.12082 -0.418038,0.53304 -0.680817,0.70255 -0.680817,0.43918 z m 102.239999,-0.50167 c -0.704,-0.33314 -1.18959,-0.61736 -1.07908,-0.63161 0.31073,-0.0401 2.51908,0.92284 2.51908,1.09839 0,0.21448 -0.001,0.21415 -1.44,-0.46678 z m 29.23918,0.0625 c -0.39804,-0.50754 -0.38672,-0.51886 0.12082,-0.12082 0.53304,0.41804 0.70255,0.68082 0.43918,0.68082 -0.0665,0 -0.31845,-0.252 -0.56,-0.56 z m -100.59918,-1.04 c 0.108774,-0.176 0.441273,-0.3178 0.738886,-0.3151 0.466328,0.004 0.474774,0.0478 0.06111,0.3151 -0.626679,0.40499 -1.050298,0.40499 -0.8,0 z m 68.48,-0.30249 c -0.704,-0.33314 -1.12213,-0.61736 -0.92917,-0.63161 0.39168,-0.0289 2.36917,0.90386 2.36917,1.11753 0,0.19293 -0.0189,0.18656 -1.44,-0.48592 z m -66.794096,-0.39143 c 0.185953,-0.18595 0.526983,-0.27513 0.757843,-0.19818 0.239663,0.0799 0.09461,0.22494 -0.338096,0.3381 -0.53227,0.13919 -0.657208,0.0976 -0.419747,-0.13992 z m 1.6,-0.64 c 0.185953,-0.18595 0.526983,-0.27513 0.757843,-0.19818 0.239663,0.0799 0.09461,0.22494 -0.338096,0.3381 -0.53227,0.13919 -0.657208,0.0976 -0.419747,-0.13992 z m 62.794096,0.0539 c -0.41366,-0.26733 -0.40521,-0.31088 0.0611,-0.3151 0.29762,-0.003 0.63011,0.1391 0.73889,0.3151 0.2503,0.40499 -0.17332,0.40499 -0.8,0 z m -61.194096,-0.6939 c 0.185953,-0.18595 0.526983,-0.27513 0.757843,-0.19818 0.239663,0.0799 0.09461,0.22494 -0.338096,0.3381 -0.53227,0.13919 -0.657208,0.0976 -0.419747,-0.13992 z m 58.634096,-0.26609 c -0.792,-0.33234 -1.296,-0.61012 -1.12,-0.61731 0.44003,-0.018 2.65778,0.76842 2.92736,1.038 0.36826,0.36826 -0.2952,0.21383 -1.80736,-0.42069 z m -57.034096,-0.37391 c 0.185953,-0.18595 0.526982,-0.27513 0.757843,-0.19818 0.239663,0.0799 0.09461,0.22494 -0.338096,0.3381 -0.53227,0.13919 -0.657208,0.0975 -0.419747,-0.13992 z m -31.925903,-0.0669 c 0,-0.0664 0.252,-0.31845 0.56,-0.56 0.507537,-0.39804 0.518856,-0.38672 0.120817,0.12082 -0.418038,0.53304 -0.680817,0.70255 -0.680817,0.43918 z m 33.279999,-0.31625 c 0,-0.18601 3.080414,-1.16722 3.580127,-1.14039 0.230931,0.0124 -0.08413,0.20602 -0.700127,0.43026 -1.4252,0.51881 -2.88,0.87752 -2.88,0.71013 z m 51.84,-0.50965 c -0.968,-0.3232 -1.57106,-0.6024 -1.34013,-0.62045 0.47841,-0.0374 3.58013,0.9364 3.58013,1.124 0,0.20183 -0.38964,0.11424 -2.24,-0.50355 z m -47.653333,-0.77857 c 0.257683,-0.24214 4.192881,-1.15445 4.879179,-1.13116 0.381785,0.013 -0.385846,0.29491 -1.705846,0.62657 -2.32589,0.58438 -3.448162,0.76284 -3.173333,0.50459 z m 44.133333,-0.19471 -0.8,-0.25621 0.8,-0.027 c 0.44,-0.0149 1.016,0.1126 1.28,0.28321 0.42667,0.27573 0.42667,0.3072 0,0.2832 -0.264,-0.0148 -0.84,-0.14229 -1.28,-0.2832 z m -3.04,-0.64 -0.96,-0.24428 0.96,-0.033 c 0.528,-0.0181 1.176,0.10663 1.44,0.27724 0.42667,0.27573 0.42667,0.30654 0,0.27724 -0.264,-0.0181 -0.912,-0.14289 -1.44,-0.27724 z m -35.04,-0.63056 c 0.264,-0.1758 0.972,-0.32185 1.573334,-0.32454 1.434657,-0.006 1.179097,0.17487 -0.613334,0.43511 -1.006268,0.1461 -1.295422,0.11279 -0.96,-0.11057 z m 31.68,-0.009 -1.12,-0.23575 1.12,-0.0196 c 0.616,-0.0108 1.408,0.10412 1.76,0.25538 l 0.64,0.27502 -0.64,-0.0196 c -0.352,-0.0108 -1.144,-0.12572 -1.76,-0.25538 z m -28,-0.63876 c 0.606524,-0.26224 3.9356,-0.45039 3.65333,-0.20648 -0.0733,0.0634 -1.06933,0.198 -2.21333,0.2992 -1.287704,0.1139 -1.836216,0.0786 -1.44,-0.0927 z m 23.84,-0.002 -1.44,-0.22388 1.44,-0.0162 c 0.792,-0.009 1.8,0.0991 2.24,0.24004 l 0.8,0.25621 -0.8,-0.0162 c -0.44,-0.009 -1.448,-0.11691 -2.24,-0.24004 z m -18.24,-0.65634 c 0.792,-0.14092 2.088,-0.24766 2.88,-0.23719 l 1.44,0.019 -1.6,0.24921 c -0.88,0.13707 -2.176,0.2438 -2.88,0.23719 l -1.28,-0.012 z m 12.4,0.10323 -1.2,-0.12553 0.0592,-1.82068 0.0592,-1.82068 0.11753,1.68 c 0.11524,1.64732 0.13743,1.68036 1.1408,1.69844 0.5628,0.0101 1.59928,0.13758 2.30328,0.2832 l 1.28,0.26476 -1.28,-0.017 c -0.704,-0.009 -1.82,-0.0735 -2.48,-0.14252 z m -17.92,-14.69851 c 0.22,-0.0888 0.58,-0.0888 0.8,0 0.22,0.0888 0.04,0.1614 -0.4,0.1614 -0.44,0 -0.62,-0.0726 -0.4,-0.1614 z m 25.94,-0.007 c 0.231,-0.0924 0.507,-0.0811 0.61333,0.0253 0.10634,0.10634 -0.0827,0.18197 -0.42,0.16807 -0.37278,-0.0154 -0.44861,-0.0912 -0.19333,-0.19333 z M 100.50037,9.9521943 c 0.31135,-0.0811 0.74335,-0.0758 0.96,0.0119 0.21665,0.0876 -0.0381,0.1540297 -0.56609,0.1475097 -0.528,-0.007 -0.70526,-0.0782 -0.39391,-0.1593697 z m 19.03391,0.01 c 0.22,-0.0888 0.58,-0.0888 0.8,0 0.22,0.0888 0.04,0.1613997 -0.4,0.1613997 -0.44,0 -0.62,-0.0726 -0.4,-0.1613997 z m -5.44,-0.33391 c 0.396,-0.0763 1.044,-0.0763 1.44,0 0.396,0.0763 0.072,0.13868 -0.72,0.13868 -0.792,0 -1.116,-0.0624 -0.72,-0.13868 z"
       id="path1" />
  </g>
</svg>
